<svg xmlns="http://www.w3.org/2000/svg" viewBox="0 0 616.99 144.84"><defs><style>.cls-1{fill:#06f;stroke:#fff;stroke-width:3px;}.cls-2{fill:#fff;}</style></defs><g id="Layer_2" data-name="Layer 2"><g id="Layer_1-2" data-name="Layer 1"><path class="cls-1" d="M93.17,142.52h46.59L64,68.61,132.47,1.5H88.71L37.25,51V86.59Z"/><path class="cls-1" d="M447.46,142.93h46.6L418.29,69,486.76,1.91H443L391.55,51.44V87Z"/><path class="cls-2" d="M0,143.56H37.4V.5H0Z"/><path class="cls-2" d="M153.58,143.53H191V.47h-37.4Z"/><path class="cls-2" d="M354.3,143.56h37.39V.5H354.3Z"/><path class="cls-2" d="M325.18,135.82c1.3-.66,2.37-1.24,3.1-1.66V105.5a68.51,68.51,0,0,1-19.58,9.92c-5.55,1.77-13.72,4.27-24.11,3-4.1-.51-16.08-2.21-26.26-12.07A44.85,44.85,0,0,1,246.2,84.69a47.7,47.7,0,0,1-.7-21.45A45.75,45.75,0,0,1,255.61,43,45,45,0,0,1,273,29.7c12.31-5.16,23.35-3,29.56-1.73a62.14,62.14,0,0,1,25.72,11.75V11.05c-1.1-.58-2.82-1.46-5-2.44A96.25,96.25,0,0,0,285.8.34a83.15,83.15,0,0,0-16.38,1c-6.56,1.09-19.76,3.45-32.85,13.53a67.85,67.85,0,0,0-20.23,25.58c-5.39,11.9-5.79,22.34-6.05,28.84a88.66,88.66,0,0,0,1.26,18.8A69.31,69.31,0,0,0,217,106.75a61.84,61.84,0,0,0,16.74,21.17c12.25,10.27,24.8,13.24,32.09,14.88A87.86,87.86,0,0,0,297,144,82.25,82.25,0,0,0,325.18,135.82Z"/><path class="cls-2" d="M607.89,37.16c-2.61-1.15-6-2.57-10.07-4a114.36,114.36,0,0,0-12.2-3.69,98.48,98.48,0,0,0-13.8-2.29,79.46,79.46,0,0,0-13.07-.07,37.11,37.11,0,0,0-7.92,1.4,16.72,16.72,0,0,0-6.53,3.21,12,12,0,0,0-2.64,3.13A11.56,11.56,0,0,0,540.3,39,11.27,11.27,0,0,0,544,49.82c.92.83,2.14,1.66,5.3,2.83a48.43,48.43,0,0,0,7.83,2.2c4.22.81,8.42,1.79,12.63,2.64,7.08,1.43,10.69,2.16,14.64,3.3a82.39,82.39,0,0,1,9.73,3.4,43.43,43.43,0,0,1,8.66,4.56,31.33,31.33,0,0,1,8.14,7.94A32.47,32.47,0,0,1,615.77,88,45.45,45.45,0,0,1,617,99.42a53.9,53.9,0,0,1-.85,11.13,40.59,40.59,0,0,1-3.36,10.94,36.71,36.71,0,0,1-6.84,9.76,37.5,37.5,0,0,1-11.6,7.84,52.52,52.52,0,0,1-10.4,3.36,93.94,93.94,0,0,1-22.06,2.24,137.81,137.81,0,0,1-19.34-1.34c-1.18-.16-6.76-.95-14.13-2.7a166,166,0,0,1-19.5-5.89V104.61c.94.48,2.25,1.16,3.83,1.94s3.34,1.67,5.17,2.5c3.05,1.41,5.45,2.32,7.37,3,2.49.94,5.41,2,9.28,3.14a94.31,94.31,0,0,0,12.8,2.71,72.46,72.46,0,0,0,11.09.87,42.86,42.86,0,0,0,11-1.19,19.89,19.89,0,0,0,6.92-2.71,13.36,13.36,0,0,0,5.52-6.56,12.13,12.13,0,0,0,.66-4.1,14.81,14.81,0,0,0-3.33-9.7c-1.28-1.44-2.79-2.41-6.4-3.86-6.59-2.65-11.32-3.31-20.4-5.27-4.65-1-7-1.51-9.47-2.2-5.35-1.49-10.38-2.92-16.13-6.13-3.41-1.91-6.82-3.81-10.27-7.6a33.49,33.49,0,0,1-6.83-11.74,40.72,40.72,0,0,1-2-17.16c.28-4.43.75-10.76,4.54-17.77A38.28,38.28,0,0,1,522,11.25c5.22-4.16,10.13-5.84,14.33-7.23,7.4-2.45,13.43-2.78,18.74-3.07a113.78,113.78,0,0,1,15.86.4c6.68.51,11.94,1.33,15.34,1.87,4.89.78,8.65,1.55,10.4,1.92,4.27.9,8,1.84,11.22,2.71Z"/></g></g></svg>