<svg id="Group_10" data-name="Group 10" xmlns="http://www.w3.org/2000/svg" xmlns:xlink="http://www.w3.org/1999/xlink" width="754.897" height="145.464" viewBox="0 0 754.897 145.464">
  <defs>
    <clipPath id="clip-path">
      <rect id="Rectangle_44" data-name="Rectangle 44" width="754.897" height="145.464" fill="none"/>
    </clipPath>
  </defs>
  <path id="Path_10" data-name="Path 10" d="M231.294,143.1h46.6l-75.8-73.9,68.5-67.1h-43.8l-51.4,49.5V87.2Z" fill="#06f"/>
  <g id="Group_5" data-name="Group 5">
    <g id="Group_4" data-name="Group 4" clip-path="url(#clip-path)">
      <path id="Path_11" data-name="Path 11" d="M231.294,143.1h46.6l-75.8-73.9,68.5-67.1h-43.8l-51.4,49.5V87.2Z" fill="none" stroke="#fff" stroke-width="3"/>
    </g>
  </g>
  <path id="Path_12" data-name="Path 12" d="M585.594,143.5h46.6l-75.8-73.9,68.5-67.1h-43.8L529.594,52V87.6Z" fill="#06f"/>
  <g id="Group_7" data-name="Group 7">
    <g id="Group_6" data-name="Group 6" clip-path="url(#clip-path)">
      <path id="Path_13" data-name="Path 13" d="M585.594,143.5h46.6l-75.8-73.9,68.5-67.1h-43.8L529.594,52V87.6Z" fill="none" stroke="#fff" stroke-width="3"/>
    </g>
  </g>
  <rect id="Rectangle_46" data-name="Rectangle 46" width="37.4" height="143.1" transform="translate(138.094 1.101)" fill="#fff"/>
  <rect id="Rectangle_47" data-name="Rectangle 47" width="37.4" height="143" transform="translate(291.694 1.101)" fill="#fff"/>
  <rect id="Rectangle_48" data-name="Rectangle 48" width="37.4" height="143.1" transform="translate(492.394 1.101)" fill="#fff"/>
  <g id="Group_9" data-name="Group 9">
    <g id="Group_8" data-name="Group 8" clip-path="url(#clip-path)">
      <path id="Path_14" data-name="Path 14" d="M463.294,136.4c1.3-.7,2.4-1.2,3.1-1.7V106a67.658,67.658,0,0,1-19.6,9.9c-5.6,1.8-13.7,4.3-24.1,3-4.1-.5-16.1-2.2-26.3-12.1a44.6,44.6,0,0,1-12.1-21.6,48.472,48.472,0,0,1-.7-21.5,46.851,46.851,0,0,1,10.1-20.2,45.044,45.044,0,0,1,17.4-13.3c12.3-5.2,23.4-3,29.6-1.7a61.627,61.627,0,0,1,25.7,11.8V11.7a48.779,48.779,0,0,0-5-2.4,96.712,96.712,0,0,0-37.5-8.3,79.991,79.991,0,0,0-16.4,1c-6.6,1.1-19.8,3.5-32.9,13.5a66.568,66.568,0,0,0-20.2,25.6c-5.4,11.9-5.8,22.3-6,28.8a84.375,84.375,0,0,0,1.3,18.8,68.959,68.959,0,0,0,5.5,18.6,63.9,63.9,0,0,0,16.7,21.2c12.2,10.3,24.8,13.2,32.1,14.9a87.8,87.8,0,0,0,31.2,1.2,82.261,82.261,0,0,0,28.1-8.2" fill="#fff"/>
      <path id="Path_15" data-name="Path 15" d="M745.994,37.8a106.337,106.337,0,0,0-10.1-4,111.866,111.866,0,0,0-12.2-3.7,95.994,95.994,0,0,0-13.8-2.3,79.443,79.443,0,0,0-13.1-.1,35.638,35.638,0,0,0-7.9,1.4,18.346,18.346,0,0,0-6.5,3.2,13.446,13.446,0,0,0-2.6,3.1,12.261,12.261,0,0,0-1.4,4.1,12.593,12.593,0,0,0,.4,6.2,12.208,12.208,0,0,0,3.2,4.7,13.882,13.882,0,0,0,5.3,2.8,63.372,63.372,0,0,0,7.8,2.2c4.2.8,8.4,1.8,12.6,2.6,7.1,1.4,10.7,2.2,14.6,3.3a75.315,75.315,0,0,1,9.7,3.4,38.458,38.458,0,0,1,8.7,4.6,31.752,31.752,0,0,1,8.1,7.9,32.668,32.668,0,0,1,4.9,11.3,44.653,44.653,0,0,1,1.2,11.4,55.933,55.933,0,0,1-.8,11.1,36.575,36.575,0,0,1-3.4,10.9,38.075,38.075,0,0,1-6.8,9.8,35.638,35.638,0,0,1-11.6,7.8,48.134,48.134,0,0,1-10.4,3.4,92.756,92.756,0,0,1-22.1,2.2,140.542,140.542,0,0,1-19.3-1.3c-1.2-.2-6.8-1-14.1-2.7a163.867,163.867,0,0,1-19.5-5.9V105c.9.5,2.2,1.2,3.8,1.9,1.6.8,3.3,1.7,5.2,2.5,3.1,1.4,5.5,2.3,7.4,3,2.5.9,5.4,2,9.3,3.1a106.571,106.571,0,0,0,12.8,2.7,77.53,77.53,0,0,0,11.1.9,43.5,43.5,0,0,0,11-1.2,20.71,20.71,0,0,0,6.9-2.7,13.1,13.1,0,0,0,5.5-6.6,12.388,12.388,0,0,0,.7-4.1c0-1.1,0-6-3.3-9.7-1.3-1.4-2.8-2.4-6.4-3.9-6.6-2.6-11.3-3.3-20.4-5.3-4.7-1-7-1.5-9.5-2.2-5.4-1.5-10.4-2.9-16.1-6.1a37.26,37.26,0,0,1-10.3-7.6,33.228,33.228,0,0,1-6.8-11.7,42.382,42.382,0,0,1-2-17.2c.3-4.4.7-10.8,4.5-17.8a38.49,38.49,0,0,1,9.7-11.6c5.2-4.2,10.1-5.8,14.3-7.2a69,69,0,0,1,18.7-3.1,116.206,116.206,0,0,1,15.9.4,152.766,152.766,0,0,1,15.3,1.9c4.9.8,8.7,1.5,10.4,1.9,4.3.9,8,1.8,11.2,2.7V37.8Z" fill="#fff"/>
      <path id="Path_16" data-name="Path 16" d="M100.261,108.725v31.012L51.081,89.293,1.5,140.768V109.756L50.88,59.9l1.631,1.556Z" fill="#06f"/>
      <path id="Path_17" data-name="Path 17" d="M100.261,108.725v31.012L51.081,89.293,1.5,140.768V109.756L50.88,59.9l1.631,1.556Z" fill="none" stroke="#fff" stroke-width="3"/>
      <path id="Path_18" data-name="Path 18" d="M100.261,50.924V81.936L51.081,31.492,1.5,82.967V51.955L50.88,2.1l1.631,1.556Z" fill="#ff4646"/>
      <path id="Path_19" data-name="Path 19" d="M100.261,50.924V81.936L51.081,31.492,1.5,82.967V51.955L50.88,2.1l1.631,1.556Z" fill="none" stroke="#fff" stroke-width="3"/>
    </g>
  </g>
</svg>
